PathFileType	4	(X/Y/Z)	OpenSim_Sub01_EMGStiffKnee_Magnet.trc
DataRate	CameraRate	NumFrames	NumMarkers	Units	OrigDataRate	OrigDataStartFrame	OrigNumFrames
100	100	20	8	m	100	2784	5567
Frame#	Time	torso_imu_offset_imu	pelvis_imu_offset_imu	tibia_r_imu_offset_imu	femur_r_imu_offset_imu	tibia_l_imu_offset_imu	femur_l_imu_offset_imu	toes_r_imu_offset_imu	toes_l_imu_offset_imu
				X1	Y1	Z1	X2	Y2	Z2	X3	Y3	Z3	X4	Y4	Z4	X5	Y5	Z5	X6	Y6	Z6	X7	Y7	Z7	X8		Y8	Z8	

2784	27.83000000	-0.92160132	-0.13875462	0.06427968	-0.70352287	0.09753606	-0.61374144	-0.19530647	-0.78363868	-0.07281910	-0.68225209	-0.47161374	0.03360161	-0.61603155	0.46738261	0.21692193	-0.48511711	-0.04343037	0.33443957	-0.73746194	-0.25327391	0.06876227	-0.68227924	-0.18135350	-0.37178014
2785	27.84000000	-0.91949623	-0.14189385	0.06362240	-0.70175769	0.10325838	-0.61599057	-0.18187779	-0.78680849	-0.07570675	-0.69056658	-0.45896040	0.02805356	-0.61316675	0.47195776	0.21802709	-0.48366778	-0.03150207	0.34072932	-0.73536641	-0.26424578	0.07067950	-0.67912905	-0.18270961	-0.36987294
2786	27.85000000	-0.91813777	-0.14473464	0.06221097	-0.70055432	0.10687310	-0.61391788	-0.17681743	-0.78690732	-0.08334602	-0.69955968	-0.44675595	0.02360570	-0.60882810	0.47763002	0.21719660	-0.48057270	-0.02478425	0.34201407	-0.73298254	-0.27416688	0.07129187	-0.68142167	-0.18339578	-0.36691790
2787	27.86000000	-0.91741293	-0.14814796	0.06046530	-0.69886871	0.10973161	-0.61023112	-0.17873276	-0.78420214	-0.09352640	-0.70839925	-0.43450842	0.01981500	-0.60428398	0.48295844	0.21672363	-0.47676618	-0.02088472	0.34077637	-0.73110702	-0.28158060	0.06897645	-0.68626307	-0.18424095	-0.36406327
2788	27.87000000	-0.91701422	-0.15307180	0.05899624	-0.69545950	0.11361102	-0.60844828	-0.18523358	-0.77938139	-0.10337388	-0.71616626	-0.42161247	0.01597779	-0.60110835	0.48641184	0.21925813	-0.47348107	-0.01628411	0.34026221	-0.73066337	-0.28480806	0.06138756	-0.68973783	-0.18603955	-0.36266526
2789	27.88000000	-0.91633564	-0.15922224	0.05816569	-0.69091415	0.11877553	-0.60951577	-0.19450932	-0.77434613	-0.11070125	-0.72302555	-0.40871532	0.01233208	-0.59943037	0.48856645	0.22365130	-0.47051555	-0.01004752	0.34172046	-0.73210896	-0.28357008	0.04985778	-0.69115244	-0.18875065	-0.36223160
2790	27.89000000	-0.91454185	-0.16537492	0.05814383	-0.68722754	0.12432489	-0.61240013	-0.20519599	-0.77192943	-0.11385076	-0.72997586	-0.39742770	0.00984046	-0.59826704	0.49162016	0.22583148	-0.46656393	-0.00322953	0.34486240	-0.73554205	-0.27866528	0.03854950	-0.69229300	-0.19169032	-0.36084793
2791	27.90000000	-0.91141266	-0.17050348	0.05896086	-0.68589581	0.12956928	-0.61575699	-0.21654364	-0.77312374	-0.11225374	-0.73748057	-0.38845359	0.00904521	-0.59667167	0.49701126	0.22362714	-0.46108029	0.00309708	0.34903741	-0.74067969	-0.27126919	0.02953467	-0.69429126	-0.19420555	-0.35760635
2792	27.91000000	-0.90857320	-0.17424170	0.06024576	-0.68682560	0.13453304	-0.61746955	-0.22959275	-0.77338083	-0.10853725	-0.74434848	-0.37972897	0.00918438	-0.59389042	0.50379700	0.22073621	-0.45586064	0.00795759	0.35263713	-0.74613362	-0.26359491	0.01845736	-0.69614492	-0.19578445	-0.35469845
2793	27.92000000	-0.90784841	-0.17640732	0.06156337	-0.68957223	0.13934752	-0.61549778	-0.24564486	-0.76750856	-0.10572316	-0.74920724	-0.36888370	0.00935287	-0.58929658	0.51061079	0.22161153	-0.45299007	0.01051628	0.35401353	-0.75038539	-0.25789187	0.00013267	-0.69657784	-0.19598633	-0.35468425
2794	27.93000000	-0.90894778	-0.17774436	0.06262878	-0.69283177	0.14376913	-0.61108805	-0.26495566	-0.75600668	-0.10390073	-0.75255076	-0.35662491	0.01011169	-0.58363211	0.51633151	0.22576461	-0.45239998	0.01174642	0.35357445	-0.75302667	-0.25408302	-0.02524546	-0.69612013	-0.19504634	-0.35706221
2795	27.94000000	-0.90995278	-0.17970938	0.06327291	-0.69463944	0.14726594	-0.60801538	-0.28697557	-0.74375531	-0.10090271	-0.75630903	-0.34602757	0.01314953	-0.57869196	0.52002756	0.22890421	-0.45236418	0.01401314	0.35330985	-0.75450341	-0.25030088	-0.05334365	-0.69669164	-0.19371975	-0.35897466
2796	27.95000000	-0.90953766	-0.18311210	0.06363297	-0.69379843	0.14969492	-0.60856986	-0.31100534	-0.73394522	-0.09583949	-0.76162037	-0.33888321	0.01896159	-0.57541567	0.52154386	0.22815741	-0.45147821	0.01874505	0.35458126	-0.75497285	-0.24532510	-0.08127125	-0.69934732	-0.19261299	-0.35835720
2797	27.96000000	-0.90826240	-0.18678583	0.06474723	-0.69144433	0.15209057	-0.61043583	-0.33596267	-0.72441271	-0.09179048	-0.76716102	-0.33298874	0.02441041	-0.57212070	0.52301820	0.22515640	-0.44942043	0.02448176	0.35676190	-0.75366893	-0.23999497	-0.11074100	-0.70246593	-0.19185060	-0.35568273
2798	27.97000000	-0.90699668	-0.18929960	0.06770078	-0.68908855	0.15561391	-0.61065180	-0.36076385	-0.71218944	-0.09230008	-0.77125963	-0.32556600	0.02599004	-0.56681576	0.52682752	0.22228650	-0.44609419	0.02929541	0.35889912	-0.74974935	-0.23541025	-0.14404887	-0.70408326	-0.19146434	-0.35189632
2799	27.98000000	-0.90602688	-0.19073624	0.07178627	-0.68741301	0.16006125	-0.60933350	-0.38536483	-0.69708047	-0.09689116	-0.77385512	-0.31628266	0.02472999	-0.56014376	0.53258458	0.22073913	-0.44177429	0.03225628	0.36066454	-0.74378452	-0.23087004	-0.17948297	-0.70450692	-0.19143134	-0.34798843
2800	27.99000000	-0.90519041	-0.19234336	0.07491727	-0.68646112	0.16417866	-0.60896480	-0.41052150	-0.68102522	-0.10199143	-0.77612567	-0.30668909	0.02514972	-0.55477462	0.53777505	0.22078649	-0.43702137	0.03320331	0.36221058	-0.73743199	-0.22428799	-0.21224750	-0.70579270	-0.19168653	-0.34498425
2801	28.00000000	-0.90434640	-0.19469710	0.07593307	-0.68621543	0.16712014	-0.61113718	-0.43653066	-0.66519376	-0.10486433	-0.77887545	-0.29813724	0.02992469	-0.55234986	0.54098556	0.22252048	-0.43234118	0.03240623	0.36394714	-0.73181889	-0.21443763	-0.23926553	-0.70916014	-0.19204231	-0.34352025
2802	28.01000000	-0.90345272	-0.19628940	0.07652908	-0.68652656	0.16933203	-0.61460946	-0.46226382	-0.64830707	-0.10549303	-0.78170252	-0.29124561	0.03598427	-0.55130026	0.54423651	0.22556751	-0.42805439	0.03135622	0.36701258	-0.72641314	-0.20275354	-0.26280337	-0.71321045	-0.19195012	-0.34307531
2803	28.02000000	-0.90252644	-0.19537656	0.07878048	-0.68715987	0.17144936	-0.61768751	-0.48640984	-0.62879223	-0.10431977	-0.78402047	-0.28641005	0.03943251	-0.54958221	0.54998002	0.22943028	-0.42443958	0.03167218	0.37250226	-0.72045946	-0.19103366	-0.28593791	-0.71613832	-0.19085046	-0.34294553
